<svg width="259px" height="97px" viewBox="226 305 259 97" version="1.1" xmlns="http://www.w3.org/2000/svg" xmlns:xlink="http://www.w3.org/1999/xlink">
    <g id="Group-5" stroke="none" stroke-width="1" fill="none" fill-rule="evenodd" transform="translate(226.000000, 305.000000)">
        <path d="M52.7906666,94.104 C52.1933303,93.5066637 51.8946666,92.7813376 51.8946666,91.928 L51.8946666,75.544 L11.3186666,75.544 C10.465329,75.544 9.74000295,75.2453363 9.14266663,74.648 C8.54533031,74.0506637 8.24666663,73.3253376 8.24666663,72.472 L8.24666663,63.64 C8.24666663,62.2746598 8.71599527,60.9946726 9.65466663,59.8 L47.4146666,7.576 C47.8413354,6.89332992 48.481329,6.36000192 49.3346666,5.976 C50.1880042,5.59199808 51.1266615,5.4 52.1506666,5.4 L66.2306666,5.4 C67.169338,5.4 67.9159972,5.67733056 68.4706666,6.232 C69.0253361,6.78666944 69.3026666,7.53332864 69.3026666,8.472 L69.3026666,60.312 L80.8226666,60.312 C81.761338,60.312 82.5079972,60.5893306 83.0626666,61.144 C83.6173361,61.6986694 83.8946666,62.4453286 83.8946666,63.384 L83.8946666,72.472 C83.8946666,73.3253376 83.6173361,74.0506637 83.0626666,74.648 C82.5079972,75.2453363 81.761338,75.544 80.8226666,75.544 L69.3026666,75.544 L69.3026666,91.928 C69.3026666,92.7813376 69.0253361,93.5066637 68.4706666,94.104 C67.9159972,94.7013363 67.169338,95 66.2306666,95 L54.9666666,95 C54.113329,95 53.3880029,94.7013363 52.7906666,94.104 Z M26.2946666,60.824 L52.2786666,60.824 L52.2786666,24.088 L26.2946666,60.824 Z M108.122222,86.808 C102.532861,80.4933018 99.4822248,72.2160512 98.9702222,61.976 C98.8848884,59.6719885 98.8422222,55.7466944 98.8422222,50.2 C98.8422222,44.5679718 98.8848884,40.5573453 98.9702222,38.168 C99.396891,28.0986163 102.46886,19.9066982 108.186222,13.592 C113.903584,7.27730176 122.394166,4.12 133.658222,4.12 C144.922279,4.12 153.41286,7.27730176 159.130222,13.592 C164.847584,19.9066982 167.919553,28.0986163 168.346222,38.168 C168.51689,42.9466906 168.602222,46.9573171 168.602222,50.2 C168.602222,53.4426829 168.51689,57.367977 168.346222,61.976 C167.83422,72.2160512 164.783583,80.4933018 159.194222,86.808 C153.604861,93.1226982 145.092946,96.28 133.658222,96.28 C122.223498,96.28 113.711583,93.1226982 108.122222,86.808 Z M145.562222,76.12 C148.207569,72.6639827 149.615555,67.736032 149.786222,61.336 C149.871556,58.861321 149.914222,55.0640256 149.914222,49.944 C149.914222,44.8239744 149.871556,41.1120115 149.786222,38.808 C149.615555,32.5786355 148.207569,27.7146842 145.562222,24.216 C142.916876,20.7173158 138.948915,18.9253338 133.658222,18.84 C128.367529,18.9253338 124.399569,20.7173158 121.754222,24.216 C119.108876,27.7146842 117.70089,32.5786355 117.530222,38.808 C117.444888,41.1120115 117.402222,44.8239744 117.402222,49.944 C117.402222,55.0640256 117.444888,58.861321 117.530222,61.336 C117.70089,67.736032 119.108876,72.6639827 121.754222,76.12 C124.399569,79.5760173 128.367529,81.304 133.658222,81.304 C138.948915,81.304 142.916876,79.5760173 145.562222,76.12 Z M227.837778,94.104 C227.240441,93.5066637 226.941778,92.7813376 226.941778,91.928 L226.941778,75.544 L186.365778,75.544 C185.51244,75.544 184.787114,75.2453363 184.189778,74.648 C183.592441,74.0506637 183.293778,73.3253376 183.293778,72.472 L183.293778,63.64 C183.293778,62.2746598 183.763106,60.9946726 184.701778,59.8 L222.461778,7.576 C222.888447,6.89332992 223.52844,6.36000192 224.381778,5.976 C225.235115,5.59199808 226.173773,5.4 227.197778,5.4 L241.277778,5.4 C242.216449,5.4 242.963108,5.67733056 243.517778,6.232 C244.072447,6.78666944 244.349778,7.53332864 244.349778,8.472 L244.349778,60.312 L255.869778,60.312 C256.808449,60.312 257.555108,60.5893306 258.109778,61.144 C258.664447,61.6986694 258.941778,62.4453286 258.941778,63.384 L258.941778,72.472 C258.941778,73.3253376 258.664447,74.0506637 258.109778,74.648 C257.555108,75.2453363 256.808449,75.544 255.869778,75.544 L244.349778,75.544 L244.349778,91.928 C244.349778,92.7813376 244.072447,93.5066637 243.517778,94.104 C242.963108,94.7013363 242.216449,95 241.277778,95 L230.013778,95 C229.16044,95 228.435114,94.7013363 227.837778,94.104 Z M201.341778,60.824 L227.325778,60.824 L227.325778,24.088 L201.341778,60.824 Z" id="404" fill="#4CFFFA"></path>
        <path d="M44.7906666,90.104 C44.1933303,89.5066637 43.8946666,88.7813376 43.8946666,87.928 L43.8946666,71.544 L3.31866663,71.544 C2.46532903,71.544 1.74000295,71.2453363 1.14266663,70.648 C0.545330307,70.0506637 0.246666627,69.3253376 0.246666627,68.472 L0.246666627,59.64 C0.246666627,58.2746598 0.715995267,56.9946726 1.65466663,55.8 L39.4146666,3.576 C39.8413354,2.89332992 40.481329,2.36000192 41.3346666,1.976 C42.1880042,1.59199808 43.1266615,1.4 44.1506666,1.4 L58.2306666,1.4 C59.169338,1.4 59.9159972,1.67733056 60.4706666,2.232 C61.0253361,2.78666944 61.3026666,3.53332864 61.3026666,4.472 L61.3026666,56.312 L72.8226666,56.312 C73.761338,56.312 74.5079972,56.5893306 75.0626666,57.144 C75.6173361,57.6986694 75.8946666,58.4453286 75.8946666,59.384 L75.8946666,68.472 C75.8946666,69.3253376 75.6173361,70.0506637 75.0626666,70.648 C74.5079972,71.2453363 73.761338,71.544 72.8226666,71.544 L61.3026666,71.544 L61.3026666,87.928 C61.3026666,88.7813376 61.0253361,89.5066637 60.4706666,90.104 C59.9159972,90.7013363 59.169338,91 58.2306666,91 L46.9666666,91 C46.113329,91 45.3880029,90.7013363 44.7906666,90.104 Z M18.2946666,56.824 L44.2786666,56.824 L44.2786666,20.088 L18.2946666,56.824 Z M100.122222,82.808 C94.5328609,76.4933018 91.4822248,68.2160512 90.9702222,57.976 C90.8848884,55.6719885 90.8422222,51.7466944 90.8422222,46.2 C90.8422222,40.5679718 90.8848884,36.5573453 90.9702222,34.168 C91.396891,24.0986163 94.4688603,15.9066982 100.186222,9.592 C105.903584,3.27730176 114.394166,0.12 125.658222,0.12 C136.922279,0.12 145.41286,3.27730176 151.130222,9.592 C156.847584,15.9066982 159.919553,24.0986163 160.346222,34.168 C160.51689,38.9466906 160.602222,42.9573171 160.602222,46.2 C160.602222,49.4426829 160.51689,53.367977 160.346222,57.976 C159.83422,68.2160512 156.783583,76.4933018 151.194222,82.808 C145.604861,89.1226982 137.092946,92.28 125.658222,92.28 C114.223498,92.28 105.711583,89.1226982 100.122222,82.808 Z M137.562222,72.12 C140.207569,68.6639827 141.615555,63.736032 141.786222,57.336 C141.871556,54.861321 141.914222,51.0640256 141.914222,45.944 C141.914222,40.8239744 141.871556,37.1120115 141.786222,34.808 C141.615555,28.5786355 140.207569,23.7146842 137.562222,20.216 C134.916876,16.7173158 130.948915,14.9253338 125.658222,14.84 C120.367529,14.9253338 116.399569,16.7173158 113.754222,20.216 C111.108876,23.7146842 109.70089,28.5786355 109.530222,34.808 C109.444888,37.1120115 109.402222,40.8239744 109.402222,45.944 C109.402222,51.0640256 109.444888,54.861321 109.530222,57.336 C109.70089,63.736032 111.108876,68.6639827 113.754222,72.12 C116.399569,75.5760173 120.367529,77.304 125.658222,77.304 C130.948915,77.304 134.916876,75.5760173 137.562222,72.12 Z M219.837778,90.104 C219.240441,89.5066637 218.941778,88.7813376 218.941778,87.928 L218.941778,71.544 L178.365778,71.544 C177.51244,71.544 176.787114,71.2453363 176.189778,70.648 C175.592441,70.0506637 175.293778,69.3253376 175.293778,68.472 L175.293778,59.64 C175.293778,58.2746598 175.763106,56.9946726 176.701778,55.8 L214.461778,3.576 C214.888447,2.89332992 215.52844,2.36000192 216.381778,1.976 C217.235115,1.59199808 218.173773,1.4 219.197778,1.4 L233.277778,1.4 C234.216449,1.4 234.963108,1.67733056 235.517778,2.232 C236.072447,2.78666944 236.349778,3.53332864 236.349778,4.472 L236.349778,56.312 L247.869778,56.312 C248.808449,56.312 249.555108,56.5893306 250.109778,57.144 C250.664447,57.6986694 250.941778,58.4453286 250.941778,59.384 L250.941778,68.472 C250.941778,69.3253376 250.664447,70.0506637 250.109778,70.648 C249.555108,71.2453363 248.808449,71.544 247.869778,71.544 L236.349778,71.544 L236.349778,87.928 C236.349778,88.7813376 236.072447,89.5066637 235.517778,90.104 C234.963108,90.7013363 234.216449,91 233.277778,91 L222.013778,91 C221.16044,91 220.435114,90.7013363 219.837778,90.104 Z M193.341778,56.824 L219.325778,56.824 L219.325778,20.088 L193.341778,56.824 Z" id="404" fill="#2C2C46"></path>
    </g>
</svg>
