<svg width="340px" height="42px" viewBox="0 0 340 42" version="1.1" xmlns="http://www.w3.org/2000/svg" xmlns:xlink="http://www.w3.org/1999/xlink">
    <g id="Components" stroke="none" stroke-width="1" fill="none" fill-rule="evenodd">
        <g id="Artboard-2" transform="translate(-30.000000, -53.000000)">
            <g id="Group" transform="translate(30.000000, 53.000000)">
                <g id="logo" transform="translate(0.000000, 0.162162)" fill="#2C2C46">
                    <g id="Group-11" transform="translate(0.000000, 3.486486)" fill-rule="nonzero">
                        <path d="M19.7945205,35.4103696 C30.6983783,35.4103696 39.5890411,27.5157183 39.5890411,17.7051848 C39.5890411,7.89465129 30.6983783,0 19.7945205,0 C18.3494441,0 16.9237527,0.138559231 15.5349335,0.410874512 C11.7178466,1.15931683 8.24972646,2.9063124 5.54745229,5.41104792 C4.64000182,6.25216295 3.82667532,7.1718705 3.12069578,8.15653775 C1.09542236,10.9812944 0,14.2707553 0,17.7051848 C0,22.8793828 2.4931063,27.6841326 6.74308129,31.0191914 C7.24861475,31.4158958 7.98063777,31.3284543 8.37810047,30.8238853 C8.77556316,30.3193163 8.68795449,29.5886898 8.18242102,29.1919854 C4.47770286,26.2848029 2.32876712,22.1433435 2.32876712,17.7051848 C2.32876712,14.7645457 3.26736879,11.9460041 5.0145092,9.5091744 C5.6288584,8.65230888 6.33848094,7.8498695 7.13215552,7.11421324 C9.51473684,4.90580073 12.5888294,3.35728863 15.9838431,2.69160507 C17.22485,2.44827238 18.5002011,2.32432432 19.7945205,2.32432432 C29.4689438,2.32432432 37.260274,9.24280005 37.260274,17.7051848 C37.260274,26.1675695 29.4689438,33.0860452 19.7945205,33.0860452 C17.8821172,33.0860452 16.0128771,32.8154021 14.2383304,32.291023 C13.9138178,32.1951295 13.5635604,32.2449031 13.2787579,32.4273841 L7.8052906,35.9343876 C7.26413034,36.2811241 7.10705602,37.0000697 7.45445529,37.5401975 C7.80185456,38.0803253 8.52217437,38.2371 9.06333463,37.8903635 L14.095849,34.6658909 C15.9286508,35.1576384 17.8430425,35.4103696 19.7945205,35.4103696 Z" id="Combined-Shape"></path>
                    </g>
                    <path d="M50.6041096,33.1448649 C49.2223675,32.4630597 48.1821953,31.6882926 47.4835616,30.8205405 C46.784928,29.9527885 46.4356164,29.2554981 46.4356164,28.7286486 C46.4356164,28.4497283 46.5442912,28.2250459 46.7616438,28.0545946 C46.9789965,27.8841433 47.2118709,27.7989189 47.460274,27.7989189 L48.1589041,27.7989189 C48.3762568,27.7989189 48.5547938,27.8376573 48.6945205,27.9151351 C48.8342473,27.992613 48.9972593,28.1553141 49.1835616,28.4032432 C49.8666701,29.3639688 50.6972554,30.1154928 51.6753425,30.6578378 C52.6534295,31.2001829 53.9963385,31.4713514 55.7041096,31.4713514 C57.6292334,31.4713514 59.1817293,31.1072108 60.3616438,30.3789189 C61.5415584,29.650627 62.1315068,28.6046915 62.1315068,27.2410811 C62.1315068,26.4043201 61.89087,25.7225252 61.409589,25.1956757 C60.9283081,24.6688262 60.1520602,24.2117136 59.0808219,23.8243243 C58.0095837,23.436935 56.4182754,22.9953178 54.3068493,22.4994595 C51.5433652,21.8796365 49.6570827,21.0273928 48.6479452,19.9427027 C47.6388077,18.8580126 47.1342466,17.4789273 47.1342466,15.8054054 C47.1342466,14.658733 47.4525082,13.5740592 48.0890411,12.5513514 C48.725574,11.5286435 49.6725965,10.6918951 50.930137,10.0410811 C52.1876775,9.39026702 53.701361,9.06486486 55.4712329,9.06486486 C57.3342559,9.06486486 58.9100392,9.38251935 60.1986301,10.0178378 C61.4872211,10.6531563 62.4497685,11.389185 63.0863014,12.2259459 C63.7228342,13.0627069 64.0410959,13.7445019 64.0410959,14.2713514 C64.0410959,14.5502717 63.9401837,14.7749541 63.7383562,14.9454054 C63.5365287,15.1158567 63.2958918,15.2010811 63.0164384,15.2010811 L62.3178082,15.2010811 C61.8831028,15.2010811 61.5415538,14.9996417 61.2931507,14.5967568 C60.672143,13.6670224 59.9657574,12.9619844 59.1739726,12.4816216 C58.3821878,12.0012589 57.1479536,11.7610811 55.4712329,11.7610811 C53.6703106,11.7610811 52.3041142,12.1329693 51.3726027,12.8767568 C50.4410912,13.6205443 49.9753425,14.5967507 49.9753425,15.8054054 C49.9753425,16.5491929 50.161642,17.1690065 50.5342466,17.6648649 C50.9068512,18.1607232 51.6054743,18.6178357 52.630137,19.0362162 C53.6547996,19.4545967 55.1451957,19.8807186 57.1013699,20.3145946 C59.9890555,20.9654087 62.0228252,21.8331477 63.2027397,22.9178378 C64.3826543,24.0025279 64.9726027,25.4435946 64.9726027,27.2410811 C64.9726027,28.5117181 64.6155287,29.6738686 63.9013699,30.7275676 C63.187211,31.7812665 62.1315138,32.6180149 60.7342466,33.2378378 C59.3369793,33.8576608 57.6602838,34.1675676 55.7041096,34.1675676 C53.6858347,34.1675676 51.9858517,33.8266701 50.6041096,33.1448649 Z M69.7000001,33.4237838 C69.5136978,33.2378369 69.420548,32.9899115 69.420548,32.68 L69.420548,10.5524324 C69.420548,10.242521 69.5136978,9.99459552 69.7000001,9.80864865 C69.8863024,9.62270177 70.1347017,9.52972973 70.4452055,9.52972973 L71.2369864,9.52972973 C71.5474902,9.52972973 71.7958895,9.62270177 71.9821918,9.80864865 C72.1684941,9.99459552 72.2616439,10.242521 72.2616439,10.5524324 L72.2616439,12.1794595 C73.0689539,11.1567516 74.0082139,10.3819846 75.0794521,9.85513514 C76.1506903,9.32828565 77.4314995,9.06486486 78.9219179,9.06486486 C82.3995608,9.06486486 84.8835542,10.5214269 86.3739727,13.4345946 C87.1191819,12.1019753 88.1826415,11.0405445 89.5643836,10.2502703 C90.9461257,9.45999605 92.521909,9.06486486 94.2917809,9.06486486 C96.8689627,9.06486486 98.9648322,9.94035161 100.579452,11.6913514 C102.194072,13.4423511 103.00137,15.9293533 103.00137,19.1524324 L103.00137,32.68 C103.00137,32.9899115 102.90822,33.2378369 102.721918,33.4237838 C102.535616,33.6097307 102.287216,33.7027027 101.976712,33.7027027 L101.184932,33.7027027 C100.874428,33.7027027 100.626028,33.6097307 100.439726,33.4237838 C100.253424,33.2378369 100.160274,32.9899115 100.160274,32.68 L100.160274,19.6172973 C100.160274,16.797103 99.5780881,14.7827087 98.4136987,13.5740541 C97.2493093,12.3653994 95.7201009,11.7610811 93.8260275,11.7610811 C92.1493067,11.7610811 90.6977231,12.373147 89.4712329,13.5972973 C88.2447428,14.8214476 87.6315069,16.8280942 87.6315069,19.6172973 L87.6315069,32.68 C87.6315069,32.9899115 87.5383572,33.2378369 87.3520549,33.4237838 C87.1657525,33.6097307 86.9173532,33.7027027 86.6068494,33.7027027 L85.8150685,33.7027027 C85.5045647,33.7027027 85.2561654,33.6097307 85.0698631,33.4237838 C84.8835608,33.2378369 84.790411,32.9899115 84.790411,32.68 L84.790411,19.6172973 C84.790411,16.8280942 84.1849376,14.8214476 82.9739727,13.5972973 C81.7630077,12.373147 80.2570867,11.7610811 78.4561644,11.7610811 C76.7794437,11.7610811 75.3278601,12.373147 74.1013699,13.5972973 C72.8748798,14.8214476 72.2616439,16.8125988 72.2616439,19.5708108 L72.2616439,32.68 C72.2616439,32.9899115 72.1684941,33.2378369 71.9821918,33.4237838 C71.7958895,33.6097307 71.5474902,33.7027027 71.2369864,33.7027027 L70.4452055,33.7027027 C70.1347017,33.7027027 69.8863024,33.6097307 69.7000001,33.4237838 Z M111.175343,33.2378378 C109.902277,32.6180149 108.885392,31.7812665 108.124658,30.7275676 C107.363923,29.6738686 106.983562,28.5117181 106.983562,27.2410811 C106.983562,25.1956654 107.814147,23.5221687 109.475343,22.2205405 C111.136538,20.9189124 113.379895,20.082164 116.20548,19.7102703 L123.564384,18.6875676 L123.564384,17.0605405 C123.564384,15.3560275 123.044298,14.0466712 122.00411,13.1324324 C120.963922,12.2181936 119.372614,11.7610811 117.230137,11.7610811 C115.646568,11.7610811 114.350233,12.0709879 113.341096,12.6908108 C112.331959,13.3106337 111.687673,14.0544101 111.408219,14.9221622 C111.284018,15.2940559 111.136531,15.549729 110.965754,15.6891892 C110.794976,15.8286493 110.569865,15.8983784 110.290411,15.8983784 L109.638356,15.8983784 C109.358903,15.8983784 109.118266,15.7976587 108.916438,15.5962162 C108.714611,15.3947738 108.613699,15.154596 108.613699,14.8756757 C108.613699,14.1938705 108.924198,13.3958604 109.545206,12.4816216 C110.166213,11.5673828 111.128761,10.7693728 112.432877,10.0875676 C113.736993,9.40576236 115.336064,9.06486486 117.230137,9.06486486 C120.552528,9.06486486 122.912322,9.85512723 124.309589,11.4356757 C125.706856,13.0162241 126.40548,14.9376463 126.40548,17.2 L126.40548,32.68 C126.40548,32.9899115 126.31233,33.2378369 126.126028,33.4237838 C125.939725,33.6097307 125.691326,33.7027027 125.380822,33.7027027 L124.589041,33.7027027 C124.278537,33.7027027 124.030138,33.6097307 123.843836,33.4237838 C123.657533,33.2378369 123.564384,32.9899115 123.564384,32.68 L123.564384,30.4951351 C122.881275,31.517843 121.879915,32.385582 120.560274,33.0983784 C119.240633,33.8111747 117.494075,34.1675676 115.320548,34.1675676 C113.83013,34.1675676 112.448408,33.8576608 111.175343,33.2378378 Z M121.375343,29.24 C122.834711,27.752425 123.564384,25.614068 123.564384,22.8248649 L123.564384,21.2443243 L117.556164,22.0810811 C115.010033,22.4219837 113.084938,23.0108066 111.780822,23.8475676 C110.476706,24.6843285 109.824658,25.7380117 109.824658,27.0086486 C109.824658,28.4342414 110.422369,29.5344105 111.617808,30.3091892 C112.813248,31.0839678 114.202732,31.4713514 115.786301,31.4713514 C118.052979,31.4713514 119.915975,30.727575 121.375343,29.24 Z M132.576712,33.4237838 C132.39041,33.2378369 132.29726,32.9899115 132.29726,32.68 L132.29726,1.72 C132.29726,1.41008854 132.39041,1.16216309 132.576712,0.976216216 C132.763015,0.790269341 133.011414,0.697297297 133.321918,0.697297297 L134.113699,0.697297297 C134.424203,0.697297297 134.672602,0.790269341 134.858904,0.976216216 C135.045207,1.16216309 135.138356,1.41008854 135.138356,1.72 L135.138356,32.68 C135.138356,32.9899115 135.045207,33.2378369 134.858904,33.4237838 C134.672602,33.6097307 134.424203,33.7027027 134.113699,33.7027027 L133.321918,33.7027027 C133.011414,33.7027027 132.763015,33.6097307 132.576712,33.4237838 Z M141.542466,33.4237838 C141.356164,33.2378369 141.263014,32.9899115 141.263014,32.68 L141.263014,1.72 C141.263014,1.41008854 141.356164,1.16216309 141.542466,0.976216216 C141.728768,0.790269341 141.977168,0.697297297 142.287671,0.697297297 L143.079452,0.697297297 C143.389956,0.697297297 143.638355,0.790269341 143.824658,0.976216216 C144.01096,1.16216309 144.10411,1.41008854 144.10411,1.72 L144.10411,32.68 C144.10411,32.9899115 144.01096,33.2378369 143.824658,33.4237838 C143.638355,33.6097307 143.389956,33.7027027 143.079452,33.7027027 L142.287671,33.7027027 C141.977168,33.7027027 141.728768,33.6097307 141.542466,33.4237838 Z M151.858904,31.3551351 C150.089033,29.4801708 149.157535,26.8537106 149.064384,23.4756757 L149.017808,21.6162162 L149.064384,19.7567568 C149.157535,16.3787218 150.089033,13.7522616 151.858904,11.8772973 C153.628776,10.002333 156.128295,9.06486486 159.357535,9.06486486 C161.40686,9.06486486 163.153418,9.42900537 164.597261,10.1572973 C166.041103,10.8855892 167.120088,11.8153097 167.834247,12.9464865 C168.548406,14.0776633 168.93653,15.2475615 168.99863,16.4562162 C169.029681,16.7351365 168.936531,16.9753143 168.719178,17.1767568 C168.501826,17.3781992 168.253426,17.4789189 167.973973,17.4789189 L167.321918,17.4789189 C167.011414,17.4789189 166.786302,17.4091899 166.646576,17.2697297 C166.506849,17.1302696 166.359362,16.8745965 166.20411,16.5027027 C165.583102,14.7981897 164.713704,13.5818054 163.595891,12.8535135 C162.478077,12.1252216 161.065306,11.7610811 159.357535,11.7610811 C157.121907,11.7610811 155.344299,12.4351284 154.024658,13.7832432 C152.705017,15.1313581 151.998631,17.1999861 151.90548,19.9891892 L151.858904,21.6162162 L151.90548,23.2432432 C151.998631,26.0324464 152.705017,28.1010743 154.024658,29.4491892 C155.344299,30.797304 157.121907,31.4713514 159.357535,31.4713514 C161.065306,31.4713514 162.478077,31.1072108 163.595891,30.3789189 C164.713704,29.650627 165.583102,28.4342428 166.20411,26.7297297 C166.359362,26.357836 166.506849,26.1021629 166.646576,25.9627027 C166.786302,25.8232425 167.011414,25.7535135 167.321918,25.7535135 L167.973973,25.7535135 C168.253426,25.7535135 168.501826,25.8542332 168.719178,26.0556757 C168.936531,26.2571181 169.029681,26.4972959 168.99863,26.7762162 C168.93653,27.9848709 168.548406,29.1547691 167.834247,30.2859459 C167.120088,31.4171228 166.041103,32.3468432 164.597261,33.0751351 C163.153418,33.8034271 161.40686,34.1675676 159.357535,34.1675676 C156.128295,34.1675676 153.628776,33.2300995 151.858904,31.3551351 Z M173.958904,33.4237838 C173.772602,33.2378369 173.679452,32.9899115 173.679452,32.68 L173.679452,1.72 C173.679452,1.41008854 173.772602,1.16216309 173.958904,0.976216216 C174.145207,0.790269341 174.393606,0.697297297 174.70411,0.697297297 L175.495891,0.697297297 C175.806395,0.697297297 176.054794,0.790269341 176.241096,0.976216216 C176.427399,1.16216309 176.520548,1.41008854 176.520548,1.72 L176.520548,12.7372973 C177.45206,11.5286426 178.515519,10.6144175 179.710959,9.99459459 C180.906399,9.37477168 182.451132,9.06486486 184.345206,9.06486486 C187.388143,9.06486486 189.732412,10.0333236 191.378083,11.9702703 C193.023753,13.9072169 193.846576,16.4097144 193.846576,19.4778378 L193.846576,32.68 C193.846576,32.9899115 193.753426,33.2378369 193.567124,33.4237838 C193.380821,33.6097307 193.132422,33.7027027 192.821918,33.7027027 L192.030137,33.7027027 C191.719633,33.7027027 191.471234,33.6097307 191.284932,33.4237838 C191.09863,33.2378369 191.00548,32.9899115 191.00548,32.68 L191.00548,19.7102703 C191.00548,17.1999874 190.392244,15.2475745 189.165754,13.852973 C187.939264,12.4583714 186.177181,11.7610811 183.879452,11.7610811 C181.643825,11.7610811 179.858454,12.4661191 178.523288,13.8762162 C177.188122,15.2863134 176.520548,17.2309786 176.520548,19.7102703 L176.520548,32.68 C176.520548,32.9899115 176.427399,33.2378369 176.241096,33.4237838 C176.054794,33.6097307 175.806395,33.7027027 175.495891,33.7027027 L174.70411,33.7027027 C174.393606,33.7027027 174.145207,33.6097307 173.958904,33.4237838 Z M202.020548,33.2378378 C200.747483,32.6180149 199.730598,31.7812665 198.969863,30.7275676 C198.209129,29.6738686 197.828768,28.5117181 197.828768,27.2410811 C197.828768,25.1956654 198.659353,23.5221687 200.320548,22.2205405 C201.981744,20.9189124 204.2251,20.082164 207.050685,19.7102703 L214.409589,18.6875676 L214.409589,17.0605405 C214.409589,15.3560275 213.889503,14.0466712 212.849315,13.1324324 C211.809128,12.2181936 210.217819,11.7610811 208.075343,11.7610811 C206.491773,11.7610811 205.195439,12.0709879 204.186302,12.6908108 C203.177164,13.3106337 202.532878,14.0544101 202.253425,14.9221622 C202.129224,15.2940559 201.981736,15.549729 201.810959,15.6891892 C201.640182,15.8286493 201.41507,15.8983784 201.135617,15.8983784 L200.483562,15.8983784 C200.204109,15.8983784 199.963472,15.7976587 199.761644,15.5962162 C199.559817,15.3947738 199.458904,15.154596 199.458904,14.8756757 C199.458904,14.1938705 199.769404,13.3958604 200.390411,12.4816216 C201.011419,11.5673828 201.973966,10.7693728 203.278083,10.0875676 C204.582199,9.40576236 206.181269,9.06486486 208.075343,9.06486486 C211.397734,9.06486486 213.757528,9.85512723 215.154795,11.4356757 C216.552062,13.0162241 217.250685,14.9376463 217.250685,17.2 L217.250685,32.68 C217.250685,32.9899115 217.157536,33.2378369 216.971233,33.4237838 C216.784931,33.6097307 216.536532,33.7027027 216.226028,33.7027027 L215.434247,33.7027027 C215.123743,33.7027027 214.875344,33.6097307 214.689041,33.4237838 C214.502739,33.2378369 214.409589,32.9899115 214.409589,32.68 L214.409589,30.4951351 C213.726481,31.517843 212.725121,32.385582 211.40548,33.0983784 C210.085839,33.8111747 208.339281,34.1675676 206.165754,34.1675676 C204.675335,34.1675676 203.293614,33.8576608 202.020548,33.2378378 Z M212.220548,29.24 C213.679916,27.752425 214.409589,25.614068 214.409589,22.8248649 L214.409589,21.2443243 L208.40137,22.0810811 C205.855239,22.4219837 203.930144,23.0108066 202.626028,23.8475676 C201.321912,24.6843285 200.669863,25.7380117 200.669863,27.0086486 C200.669863,28.4342414 201.267574,29.5344105 202.463014,30.3091892 C203.658454,31.0839678 205.047938,31.4713514 206.631507,31.4713514 C208.898185,31.4713514 210.76118,30.727575 212.220548,29.24 Z M226.123288,31.6340541 C225.160726,30.2549481 224.679452,28.3567688 224.679452,25.9394595 L224.679452,12.2259459 L221.046576,12.2259459 C220.736072,12.2259459 220.487673,12.1329739 220.30137,11.947027 C220.115068,11.7610802 220.021918,11.5131547 220.021918,11.2032432 L220.021918,10.5524324 C220.021918,10.242521 220.115068,9.99459552 220.30137,9.80864865 C220.487673,9.62270177 220.736072,9.52972973 221.046576,9.52972973 L224.679452,9.52972973 L224.679452,1.72 C224.679452,1.41008854 224.772602,1.16216309 224.958905,0.976216216 C225.145207,0.790269341 225.393606,0.697297297 225.70411,0.697297297 L226.495891,0.697297297 C226.806395,0.697297297 227.054794,0.790269341 227.241096,0.976216216 C227.427399,1.16216309 227.520548,1.41008854 227.520548,1.72 L227.520548,9.52972973 L233.295891,9.52972973 C233.606395,9.52972973 233.854794,9.62270177 234.041096,9.80864865 C234.227399,9.99459552 234.320548,10.242521 234.320548,10.5524324 L234.320548,11.2032432 C234.320548,11.5131547 234.227399,11.7610802 234.041096,11.947027 C233.854794,12.1329739 233.606395,12.2259459 233.295891,12.2259459 L227.520548,12.2259459 L227.520548,25.7535135 C227.520548,27.4890177 227.80776,28.798374 228.382192,29.6816216 C228.956624,30.5648693 229.911409,31.0064865 231.246576,31.0064865 L233.761644,31.0064865 C234.072148,31.0064865 234.320547,31.0994585 234.50685,31.2854054 C234.693152,31.4713523 234.786302,31.7192777 234.786302,32.0291892 L234.786302,32.68 C234.786302,32.9899115 234.693152,33.2378369 234.50685,33.4237838 C234.320547,33.6097307 234.072148,33.7027027 233.761644,33.7027027 L231.013699,33.7027027 C228.715971,33.7027027 227.08585,33.01316 226.123288,31.6340541 Z" id="smallchat-copy-2"></path>
                </g>
                <path d="M243.92613,30.9821216 C242.287058,28.7426239 241.419795,26.0187368 241.324315,22.8103784 L241.276575,21.4762162 L241.324315,20.1420541 C241.419795,16.9336957 242.287058,14.2098085 243.92613,11.9703108 C245.565202,9.73081313 248.103339,8.61108108 251.540616,8.61108108 C255.009721,8.61108108 257.683118,9.86581628 259.56089,12.3753243 L259.56089,1.08259459 C259.56089,0.764935349 259.656369,0.510811764 259.847329,0.320216216 C260.038289,0.129620669 260.292898,0.0343243243 260.611164,0.0343243243 L261.42274,0.0343243243 C261.741006,0.0343243243 261.995615,0.129620669 262.186575,0.320216216 C262.377535,0.510811764 262.473014,0.764935349 262.473014,1.08259459 L262.473014,32.8165946 C262.473014,33.1342538 262.377535,33.3883774 262.186575,33.578973 C261.995615,33.7695685 261.741006,33.8648649 261.42274,33.8648649 L260.611164,33.8648649 C260.292898,33.8648649 260.038289,33.7695685 259.847329,33.578973 C259.656369,33.3883774 259.56089,33.1342538 259.56089,32.8165946 L259.56089,30.5771081 C257.714945,33.0866162 255.041547,34.3413514 251.540616,34.3413514 C248.103339,34.3413514 245.565202,33.2216193 243.92613,30.9821216 Z M257.508082,29.0761757 C258.781148,27.4084646 259.46541,25.4469482 259.56089,23.1915676 C259.592717,22.8739083 259.60863,22.2544821 259.60863,21.3332703 C259.60863,20.4120585 259.592717,19.7926322 259.56089,19.474973 C259.529064,18.1090382 259.226715,16.8145962 258.653836,15.5916081 C258.080956,14.36862 257.22165,13.360067 256.07589,12.5659189 C254.930131,11.7717708 253.513867,11.3747027 251.827055,11.3747027 C249.249097,11.3747027 247.363396,12.192663 246.169897,13.8286081 C244.976398,15.4645532 244.331918,17.5690142 244.236438,20.1420541 L244.188699,21.4762162 C244.188699,24.4304472 244.76157,26.8525626 245.907329,28.7426351 C247.053088,30.6327076 249.02631,31.5777297 251.827055,31.5777297 C254.34136,31.5777297 256.235016,30.7438867 257.508082,29.0761757 Z M271.997089,31.3156622 C270.167057,29.298526 269.204316,26.6858178 269.108836,23.4774595 L269.061096,21.4762162 L269.108836,19.474973 C269.204316,16.2666146 270.167057,13.6539065 271.997089,11.6367703 C273.827121,9.61963406 276.397084,8.61108108 279.707055,8.61108108 C283.017026,8.61108108 285.586989,9.61963406 287.417021,11.6367703 C289.247053,13.6539065 290.209794,16.2666146 290.305274,19.474973 C290.337101,19.7926322 290.353014,20.4597066 290.353014,21.4762162 C290.353014,22.4927258 290.337101,23.1598002 290.305274,23.4774595 C290.209794,26.6858178 289.247053,29.298526 287.417021,31.3156622 C285.586989,33.3327984 283.017026,34.3413514 279.707055,34.3413514 C276.397084,34.3413514 273.827121,33.3327984 271.997089,31.3156622 Z M285.173253,29.4097162 C286.557712,27.9643666 287.297671,25.9075539 287.393151,23.2392162 C287.424977,22.921557 287.44089,22.3338962 287.44089,21.4762162 C287.44089,20.6185363 287.424977,20.0308755 287.393151,19.7132162 C287.297671,17.0448786 286.557712,14.9880658 285.173253,13.5427162 C283.788794,12.0973666 281.966746,11.3747027 279.707055,11.3747027 C277.447363,11.3747027 275.625315,12.0973666 274.240856,13.5427162 C272.856397,14.9880658 272.116439,17.0448786 272.020959,19.7132162 L271.973219,21.4762162 L272.020959,23.2392162 C272.116439,25.9075539 272.856397,27.9643666 274.240856,29.4097162 C275.625315,30.8550658 277.447363,31.5777297 279.707055,31.5777297 C281.966746,31.5777297 283.788794,30.8550658 285.173253,29.4097162 Z M298.611986,31.4586081 C296.797868,29.5367697 295.843083,26.8446479 295.747603,23.3821622 L295.699863,21.4762162 L295.747603,19.5702703 C295.843083,16.1077845 296.797868,13.4156628 298.611986,11.4938243 C300.426105,9.57198589 302.988111,8.61108108 306.298082,8.61108108 C308.398641,8.61108108 310.188862,8.9843251 311.668801,9.73082432 C313.14874,10.4773236 314.2547,11.430287 314.986712,12.5897432 C315.718725,13.7491995 316.116552,14.9483452 316.180205,16.1872162 C316.212032,16.4731095 316.116554,16.7192918 315.893767,16.9257703 C315.670981,17.1322488 315.416371,17.2354865 315.129932,17.2354865 L314.461575,17.2354865 C314.143309,17.2354865 313.912569,17.1640142 313.769349,17.0210676 C313.626129,16.8781209 313.474955,16.616056 313.315822,16.2348649 C312.679289,14.487739 311.788156,13.2409452 310.642397,12.4944459 C309.496638,11.7479467 308.048548,11.3747027 306.298082,11.3747027 C304.006564,11.3747027 302.184516,12.0656012 300.831884,13.4474189 C299.479251,14.8292366 298.755206,16.9495803 298.659726,19.8085135 L298.611986,21.4762162 L298.659726,23.1439189 C298.755206,26.0028521 299.479251,28.1231958 300.831884,29.5050135 C302.184516,30.8868312 304.006564,31.5777297 306.298082,31.5777297 C308.048548,31.5777297 309.496638,31.2044857 310.642397,30.4579865 C311.788156,29.7114873 312.679289,28.4646934 313.315822,26.7175676 C313.474955,26.3363765 313.626129,26.0743115 313.769349,25.9313649 C313.912569,25.7884182 314.143309,25.7169459 314.461575,25.7169459 L315.129932,25.7169459 C315.416371,25.7169459 315.670981,25.8201837 315.893767,26.0266622 C316.116554,26.2331407 316.212032,26.4793229 316.180205,26.7652162 C316.116552,28.0040873 315.718725,29.2032329 314.986712,30.3626892 C314.2547,31.5221454 313.14874,32.4751089 311.668801,33.2216081 C310.188862,33.9681073 308.398641,34.3413514 306.298082,34.3413514 C302.988111,34.3413514 300.426105,33.3804465 298.611986,31.4586081 Z M325.131404,33.2930811 C323.715118,32.5942307 322.648942,31.8000945 321.932842,30.9106486 C321.216743,30.0212028 320.858699,29.3064802 320.858699,28.7664595 C320.858699,28.4805661 320.97009,28.2502666 321.192877,28.0755541 C321.415663,27.9008415 321.654359,27.8134865 321.908973,27.8134865 L322.625068,27.8134865 C322.847855,27.8134865 323.030855,27.8531933 323.174075,27.9326081 C323.317295,28.0120229 323.484383,28.1787915 323.675342,28.4329189 C324.375529,29.4176626 325.226879,30.1879747 326.229418,30.7438784 C327.231957,31.2997821 328.608439,31.5777297 330.358904,31.5777297 C332.332156,31.5777297 333.923464,31.2044857 335.132877,30.4579865 C336.342289,29.7114873 336.946986,28.6394034 336.946986,27.2417027 C336.946986,26.3840227 336.700334,25.6851829 336.207021,25.1451622 C335.713708,24.6051414 334.918053,24.1366011 333.820034,23.739527 C332.722015,23.342453 331.090924,22.8897953 328.926712,22.3815405 C326.094141,21.746222 324.160702,20.8726722 323.126336,19.7608649 C322.09197,18.6490575 321.574795,17.2354951 321.574795,15.5201351 C321.574795,14.3447959 321.901013,13.2330052 322.553459,12.1847297 C323.205905,11.1364542 324.176603,10.2787871 325.465582,9.6117027 C326.754561,8.94461829 328.306087,8.61108108 330.120205,8.61108108 C332.029804,8.61108108 333.644982,8.93667692 334.965788,9.58787838 C336.286593,10.2390798 337.273205,10.9935092 337.925651,11.8511892 C338.578097,12.7088692 338.904315,13.407709 338.904315,13.9477297 C338.904315,14.2336231 338.80088,14.4639225 338.594007,14.6386351 C338.387134,14.8133477 338.140481,14.9007027 337.854041,14.9007027 L337.137945,14.9007027 C336.692372,14.9007027 336.342284,14.6942273 336.087671,14.2812703 C335.451138,13.3282925 334.727093,12.6056286 333.915514,12.1132568 C333.103934,11.6208849 331.838844,11.3747027 330.120205,11.3747027 C328.27426,11.3747027 326.873909,11.7558881 325.91911,12.5182703 C324.96431,13.2806525 324.486918,14.2812641 324.486918,15.5201351 C324.486918,16.2825173 324.677875,16.9178263 325.059795,17.4260811 C325.441714,17.9343359 326.157803,18.4028762 327.208082,18.8317162 C328.258361,19.2605562 329.786017,19.6973311 331.791096,20.1420541 C334.750974,20.8091385 336.835588,21.698571 338.045,22.8103784 C339.254412,23.9221857 339.85911,25.3992791 339.85911,27.2417027 C339.85911,28.5441056 339.493109,29.7353099 338.761096,30.8153514 C338.029083,31.8953928 336.946993,32.7530599 335.514795,33.3883784 C334.082596,34.0236969 332.363983,34.3413514 330.358904,34.3413514 C328.290172,34.3413514 326.54769,33.9919314 325.131404,33.2930811 Z" id="docs" fill="#B3B3C0"></path>
            </g>
        </g>
    </g>
</svg>
